<svg width="466" height="372" viewBox="0 0 466 372" fill="none" xmlns="http://www.w3.org/2000/svg">
<g clip-path="url(#clip0)">
<path d="M305.423 2.15807L302.325 0H163.094L159.996 2.15807L121.378 104.289L117 115.875L118.797 120.119L130.155 125.044C130.289 125.116 144.611 131.549 162.103 145.437C174.602 155.336 185.88 166.684 195.702 179.244L201.34 186.823C207.68 195.77 213.231 205.25 217.934 215.156L229.715 240H235.745L247.517 215.156C252.228 205.247 257.786 195.764 264.131 186.812L269.769 179.233C279.587 166.677 290.862 155.332 303.358 145.437C320.85 131.58 335.13 125.127 335.244 125.075L346.602 120.129L348.399 115.885L305.423 2.15807Z" fill="#C19558"/>
<path d="M297.586 10.1605H167.803L130.888 107.862L128.823 113.397L134.254 115.761C134.399 115.823 149.567 122.556 168.401 137.445C181.993 148.226 194.207 160.638 204.769 174.401L206.689 176.941C214.586 187.529 221.42 198.87 227.093 210.799L232.71 222.663L238.327 210.799C243.994 198.887 250.818 187.56 258.7 176.982L260.651 174.401C271.221 160.648 283.442 148.247 297.039 137.476C315.852 122.566 331.041 115.792 331.186 115.792L336.617 113.428L297.586 10.1605ZM300.033 91.2482C301.118 92.5389 302.099 93.9019 303.131 95.2339C304.164 96.5659 305.134 97.9392 306.064 99.3641C307.97 102.118 309.76 104.954 311.433 107.873C312.269 109.318 313.064 110.784 313.839 112.261C314.18 112.911 314.52 113.562 314.871 114.223C311.443 116.288 307.447 118.766 303.048 121.802C297.749 109.201 290.54 97.492 281.674 87.0869L273.951 77.5769C280.249 76.6683 285.082 74.1591 288.345 70.0495C289.17 68.9979 289.883 67.8628 290.472 66.6627C311.123 75.4602 316.875 87.0043 317.195 87.6755L325.104 108.616C323.71 109.297 321.738 110.299 319.322 111.631C318.888 110.981 318.434 110.34 317.979 109.69C316.974 108.272 315.942 106.895 314.882 105.56C312.775 102.806 310.562 100.166 308.242 97.6398C307.107 96.3594 305.898 95.1306 304.721 93.8915C303.544 92.6524 302.315 91.465 301.045 90.3085C298.567 87.9543 295.882 85.7755 293.27 83.6691C295.624 86.1266 297.927 88.6048 300.033 91.2482ZM280.146 118.394C281.062 120.46 281.871 122.563 282.573 124.703C283.247 126.81 283.781 128.959 284.173 131.136C284.446 132.734 284.608 134.349 284.658 135.969C281.065 139.066 277.307 142.484 273.465 146.294C273.532 133.369 271.734 120.502 268.127 108.089L276.45 107.542L280.58 94.6143C287.849 103.923 293.811 114.182 298.299 125.106C296.12 126.707 293.869 128.41 291.546 130.269L288.995 132.334C288.758 131.549 288.489 130.775 288.2 130.021C287.334 127.809 286.316 125.66 285.154 123.588C284.011 121.555 282.767 119.58 281.427 117.672C280.1 115.782 278.673 113.966 277.152 112.23L277.038 112.323C278.181 114.296 279.215 116.329 280.136 118.415L280.146 118.394ZM258.452 148.618C258.257 147.28 257.995 145.953 257.667 144.642C257.359 143.332 256.948 142.047 256.438 140.801L256.191 140.894C256.458 142.18 256.624 143.485 256.686 144.797C256.769 146.109 256.758 147.42 256.686 148.721C256.578 151.322 256.291 153.913 255.829 156.476L255.468 158.386C255.333 159.016 255.168 159.646 255.024 160.275C254.755 161.545 254.373 162.785 253.991 164.024C253.609 165.263 253.206 166.491 252.814 167.71L251.472 171.334H251.565C244.404 180.909 238.075 191.079 232.648 201.733C227.217 191.079 220.885 180.909 213.721 171.334H213.824L212.482 167.71C212.089 166.491 211.656 165.263 211.305 164.024C210.954 162.785 210.582 161.545 210.272 160.275C210.128 159.646 209.973 159.016 209.838 158.386L209.477 156.476C209.015 153.913 208.729 151.322 208.62 148.721C208.62 147.42 208.62 146.109 208.62 144.797C208.677 143.485 208.843 142.179 209.116 140.894L208.868 140.801C208.354 142.047 207.94 143.331 207.629 144.642C207.298 145.954 207.061 147.286 206.844 148.618C206.458 151.306 206.258 154.018 206.245 156.734V158.799C206.245 159.48 206.307 160.162 206.338 160.864C206.338 161.318 206.338 161.762 206.41 162.217C203.478 158.706 200.535 155.391 197.623 152.294C196.958 139.56 198.197 126.798 201.299 114.429L201.826 132.293L201.908 134.864L204.469 135.019L210.861 135.421L214.31 152.552L214.754 154.782H229.974L232.576 187.184L235.167 154.782H250.511L250.966 152.552L254.414 135.421L260.796 135.019L263.367 134.864L263.439 132.293L263.976 114.429C267.077 126.798 268.316 139.56 267.652 152.294C264.74 155.391 261.797 158.706 258.865 162.217C258.865 161.762 258.927 161.318 258.937 160.864C258.937 160.182 259.009 159.501 259.02 158.799V156.734C259.003 154.018 258.8 151.306 258.411 148.618H258.452ZM188.247 112.209C186.726 113.945 185.299 115.762 183.973 117.651C182.628 119.559 181.381 121.534 180.235 123.568C179.081 125.642 178.066 127.791 177.199 130C176.9 130.754 176.641 131.529 176.394 132.313C175.537 131.611 174.68 130.919 173.843 130.248C171.53 128.421 169.279 126.717 167.09 125.085C171.581 114.179 177.535 103.935 184.788 94.635L188.919 107.563L197.241 108.11C193.634 120.522 191.837 133.39 191.903 146.315C188.051 142.515 184.293 139.087 180.71 135.989C180.764 134.361 180.937 132.739 181.226 131.136C181.618 128.959 182.153 126.81 182.826 124.703C183.527 122.56 184.337 120.455 185.253 118.394C186.169 116.307 187.204 114.273 188.351 112.302L188.247 112.209ZM172.088 83.6381C169.424 85.7033 166.791 87.9233 164.313 90.2775C163.042 91.434 161.855 92.6628 160.637 93.8605C159.418 95.0583 158.241 96.3284 157.105 97.6088C154.792 100.156 152.583 102.796 150.476 105.529C149.423 106.905 148.39 108.282 147.378 109.659C146.924 110.309 146.48 110.95 146.046 111.6C143.62 110.268 141.658 109.266 140.264 108.585L148.173 87.6548C148.576 86.8081 154.369 75.3672 174.896 66.6317C175.491 67.8342 176.207 68.9725 177.034 70.0289C180.297 74.1591 185.129 76.6373 191.428 77.546L183.735 87.0353C174.87 97.4404 167.66 109.149 162.361 121.75C157.962 118.714 153.966 116.205 150.538 114.171C150.858 113.51 151.199 112.86 151.571 112.209C152.355 110.733 153.15 109.266 153.987 107.821C155.66 104.916 157.449 102.08 159.356 99.3125C160.285 97.9082 161.297 96.5762 162.289 95.1822C163.28 93.7883 164.354 92.4872 165.386 91.1965C167.452 88.5531 169.795 86.0337 172.15 83.6175L172.088 83.6381ZM292.279 49.7492L291.773 47.5705H281.065C281.809 47.0336 282.573 46.5379 283.337 46.0113C284.883 44.985 286.482 44.0406 288.128 43.1821C289.782 42.3197 291.509 41.6078 293.291 41.055V40.9311C291.379 41.0352 289.482 41.3152 287.622 41.7675C285.743 42.2115 283.905 42.8 282.077 43.4196C280.249 44.0391 278.463 44.7826 276.677 45.5467C275.221 46.1868 273.806 46.8374 272.361 47.6118H244.605C256.996 29.6038 283.543 21.7976 291.525 19.7324L311.547 72.7239C305.727 68.0135 299.245 64.1863 292.31 61.3656C293.061 57.5473 293.061 53.6191 292.31 49.8008L292.279 49.7492ZM278.793 59.889C277.188 59.8679 275.583 59.9645 273.992 60.1782C272.333 60.4135 270.701 60.8077 269.118 61.3553C268.437 61.6237 267.755 61.9335 267.053 62.2743C265.973 59.9722 264.584 57.8287 262.923 55.9033L261.55 56.8223C262.836 59.248 263.705 61.873 264.121 64.5872C264.309 65.8792 264.364 67.1871 264.286 68.4903C264.245 69.1142 264.166 69.7349 264.048 70.349C264.053 70.3901 264.053 70.4317 264.048 70.4729L244.006 77.4427L241.941 78.1655L242.158 80.3442L243.645 95.4714C240.133 94.3009 236.441 93.7591 232.741 93.8709C229.04 93.7591 225.349 94.3009 221.837 95.4714L223.324 80.3442L223.541 78.1655L221.476 77.4427L201.34 70.4625V70.3386C201.227 69.7243 201.151 69.1036 201.113 68.48C201.03 67.1768 201.085 65.8684 201.278 64.5769C201.66 61.8634 202.491 59.2322 203.736 56.7913L202.373 55.8723C200.716 57.8005 199.327 59.9435 198.243 62.2433C197.57 61.902 196.881 61.5953 196.178 61.3243C194.594 60.7779 192.962 60.3837 191.304 60.1472C189.743 59.9489 188.169 59.8626 186.595 59.889C185.013 59.8946 183.433 60.0085 181.866 60.2298L181.969 61.9335C183.44 62.048 184.903 62.2549 186.348 62.5531C187.771 62.8502 189.172 63.247 190.54 63.7405C191.837 64.227 193.085 64.8355 194.267 65.5578C195.117 66.1168 195.9 66.7716 196.601 67.5094C196.601 67.7366 196.508 67.9741 196.467 68.2012C196.333 69.0078 196.247 69.8215 196.209 70.6381C196.209 70.9892 196.209 71.3609 196.209 71.6707L195.703 72.2902C189.115 72.063 184.344 70.1424 181.474 66.5594C178.015 62.233 177.994 56.3267 178.294 53.1877H224.48L232.741 62.6873L241.001 53.1877H287.188C287.498 56.2854 287.477 62.233 284.018 66.5594C281.158 70.1424 276.377 72.063 269.789 72.2902L269.283 71.6707C269.283 71.3092 269.283 70.9375 269.283 70.6381C269.254 69.8213 269.171 69.0073 269.036 68.2012C269.036 67.9741 268.943 67.7366 268.901 67.5094C269.6 66.7692 270.383 66.1142 271.235 65.5578C272.416 64.8335 273.665 64.2249 274.963 63.7405C276.33 63.2456 277.731 62.8488 279.155 62.5531C280.6 62.2549 282.062 62.048 283.533 61.9335L283.636 60.2298C282.066 60.0085 280.482 59.8946 278.897 59.889H278.793ZM263.811 71.8668C263.811 71.8668 263.811 71.9288 263.811 71.8668V71.8668ZM248.983 134.234L245.968 149.196H219.431L216.416 134.234L232.7 125.973L248.983 134.234ZM195.052 21.0748C193.534 20.3933 192.047 19.7737 190.612 19.1955H274.787C273.341 19.7737 271.865 20.3933 270.347 21.0748C254.559 28.1479 243.139 37.7198 237.305 48.7683L235.095 51.329L232.72 24.5855L230.345 51.329L228.125 48.7683C222.281 37.7198 210.861 28.1169 195.083 21.0748H195.052ZM220.825 47.5602H193.049C191.603 46.827 190.189 46.1765 188.733 45.495C186.946 44.7722 185.15 44.0494 183.332 43.3679C181.515 42.6864 179.667 42.1598 177.788 41.7158C175.927 41.2643 174.03 40.9844 172.119 40.8794V41.0034C173.9 41.5562 175.628 42.2681 177.282 43.1304C178.921 44.0031 180.513 44.9613 182.052 46.001C182.816 46.4966 183.57 47.0336 184.324 47.5602H173.626L173.12 49.7389C172.369 53.5572 172.369 57.4854 173.12 61.3037C166.183 64.127 159.698 67.954 153.873 72.6619L173.905 19.6705C181.887 21.7356 208.455 29.5418 220.825 47.5498V47.5602ZM193.142 102.224L189.012 89.5031L200.06 75.8835L200.246 75.9455L204.015 81.955H217.541L216.127 96.7517L215.972 98.3316L217.252 99.2609L229.963 108.554V121.11L212.802 129.835L207.557 129.505L206.834 106.685L211.676 101.367L210.582 99.8391L203.622 102.875L193.142 102.224ZM261.766 102.916L254.817 99.8804L253.723 101.409L258.555 106.726L257.884 129.536L252.628 129.866L235.477 121.141V108.544L248.188 99.2506L249.468 98.3213L249.314 96.7414L247.858 81.9447H261.384L265.153 75.9352L265.339 75.8732L276.346 89.4515L272.216 102.173L261.766 102.916Z" fill="#103938"/>
</g>
<path d="M150.64 370.983L149.3 367.393H140.67L139.33 370.983H135.1L142.71 351.533H147.25L154.84 371.023L150.64 370.983ZM142 363.773H148L145 355.773L142 363.773Z" fill="#C19558"/>
<path d="M174.32 367.393C175.484 367.402 176.622 367.053 177.58 366.393C178.525 365.735 179.214 364.77 179.53 363.663L183.62 364.293C183.141 366.308 181.952 368.084 180.27 369.293C178.524 370.543 176.416 371.185 174.27 371.123C172.955 371.134 171.649 370.9 170.42 370.433C169.263 370.005 168.207 369.341 167.32 368.483C166.408 367.593 165.702 366.514 165.25 365.323C164.253 362.632 164.253 359.674 165.25 356.983C165.702 355.795 166.409 354.72 167.32 353.833C168.207 352.963 169.262 352.283 170.42 351.833C171.649 351.365 172.955 351.131 174.27 351.143C176.416 351.081 178.524 351.723 180.27 352.973C181.95 354.184 183.139 355.959 183.62 357.973L179.53 358.603C179.214 357.496 178.525 356.531 177.58 355.873C176.619 355.224 175.479 354.892 174.32 354.923C173.566 354.894 172.815 355.024 172.114 355.303C171.413 355.582 170.778 356.004 170.25 356.543C169.231 357.835 168.676 359.432 168.676 361.078C168.676 362.724 169.231 364.321 170.25 365.613C170.778 366.152 171.413 366.574 172.114 366.853C172.815 367.132 173.566 367.262 174.32 367.233" fill="#C19558"/>
<path d="M208.84 370.983L207.5 367.393H198.84L197.5 370.983H193.27L200.89 351.533H205.43L213 370.983H208.84ZM200.22 363.773H206.15L203.15 355.773L200.22 363.773Z" fill="#C19558"/>
<path d="M232.57 351.533C233.893 351.525 235.207 351.751 236.45 352.203C237.614 352.631 238.686 353.275 239.61 354.103C240.539 354.965 241.27 356.02 241.75 357.193C242.799 359.815 242.799 362.741 241.75 365.363C241.272 366.535 240.541 367.586 239.61 368.443C238.69 369.276 237.617 369.921 236.45 370.343C235.208 370.803 233.894 371.033 232.57 371.023H224.34V351.533H232.57ZM232.57 367.403C234.16 367.458 235.707 366.879 236.87 365.793C237.953 364.544 238.549 362.946 238.549 361.293C238.549 359.64 237.953 358.042 236.87 356.793C235.705 355.711 234.159 355.136 232.57 355.193H228.49V367.443L232.57 367.403Z" fill="#C19558"/>
<path d="M267.48 355.113H258.22V359.523H265.83V362.953H258.22V367.363H267.48V370.983H254.07V351.493H267.48V355.113Z" fill="#C19558"/>
<path d="M301.79 351.493V370.983H297.64V358.173L292.15 367.903H289.77L284.29 358.173V370.983H280.14V351.493H284.74L290.97 362.153L297.18 351.493H301.79Z" fill="#C19558"/>
<path d="M326.35 351.493H330.58L324.07 363.523V370.983H319.93V363.523L313.33 351.493H317.58L321.96 359.583L326.35 351.493Z" fill="#C19558"/>
<path d="M0 303.983H3.35V283.783H0V280.473H11.99V283.783H8.64V293.123L18.6 283.783H15.77V280.473H27.28V283.783H24.22L13.74 293.643L24.54 303.983H27.61V307.283H15.67V303.983H18.41L8.64 294.543V303.983H11.99V307.283H0V303.983Z" fill="white"/>
<path d="M54.76 303.983H58.11V283.783H54.76V280.473H66.74V283.783H63.39V303.983H66.74V307.283H54.76V303.983Z" fill="white"/>
<path d="M94.59 303.983H98.04V283.783H94.59V280.473H104.08L118.01 300.493V283.783H114.47V280.473H125.13V283.783H121.78V307.283H116.54L101.72 285.853V303.983H105.26V307.283H94.59V303.983Z" fill="white"/>
<path d="M180.78 293.363V294.963C180.78 298.963 179.553 302.103 177.1 304.383C174.647 306.663 171.28 307.79 167 307.763C164.264 307.824 161.554 307.224 159.1 306.013C156.921 304.924 155.113 303.216 153.9 301.103C152.663 298.883 152.038 296.374 152.09 293.833C152.04 291.304 152.676 288.809 153.93 286.613C155.134 284.52 156.92 282.821 159.07 281.723C161.409 280.543 164.001 279.953 166.62 280.003C168.427 279.972 170.22 280.313 171.89 281.003C173.348 281.603 174.648 282.53 175.69 283.713V280.533H179.56V289.273H176.21C175.48 287.584 174.261 286.153 172.71 285.163C171.106 284.189 169.256 283.696 167.38 283.743C166.075 283.675 164.77 283.879 163.547 284.342C162.325 284.805 161.212 285.517 160.28 286.433C159.383 287.41 158.689 288.557 158.239 289.805C157.79 291.053 157.593 292.378 157.66 293.703C157.501 296.473 158.422 299.198 160.23 301.303C161.126 302.246 162.215 302.984 163.424 303.466C164.632 303.948 165.931 304.161 167.23 304.093C169.377 304.116 171.476 303.462 173.23 302.223C174.03 301.58 174.673 300.763 175.109 299.834C175.546 298.905 175.765 297.889 175.75 296.863H170.42V293.423L180.78 293.363Z" fill="white"/>
<path d="M212.2 303.983H215.46V283.783H212.2V280.473H222.68L230.47 297.753L237.93 280.473H248.31V283.783H245.06V303.983H248.31V307.283H236.89V303.983H240.05V284.963L230.85 306.013H228.87L219.52 284.963V303.983H222.68V307.283H212.2V303.983Z" fill="white"/>
<path d="M275 303.983H278.16L285.53 283.783H282.65V280.473H297.65V283.783H294.72L302.27 303.983H305.27V307.283H293.44V303.983H296.84L294.53 297.233H285.32L283.06 303.983H286.27V307.283H275V303.983ZM293.5 294.073L290.06 283.823H289.81L286.27 294.073H293.5Z" fill="white"/>
<path d="M332 303.983H335.35V283.783H332V280.473H343.99V283.783H340.64V293.123L350.6 283.783H347.77V280.473H359.29V283.783H356.22L345.74 293.643L356.55 303.983H359.62V307.283H347.67V303.983H350.41L340.64 294.543V303.983H343.99V307.283H332V303.983Z" fill="white"/>
<path d="M386.38 303.983H389.73V283.783H386.38V280.473H410.41V288.883H406.77V283.783H395.02V291.853H401.86V288.833H404.51V298.133H401.91V295.113H395.02V303.983H407.01V298.603H410.64V307.283H386.38V303.983Z" fill="white"/>
<path d="M438.4 303.983H441.75V283.783H438.4V280.473H453.22C455.749 280.336 458.26 280.97 460.42 282.293C461.29 282.909 461.988 283.739 462.447 284.701C462.906 285.664 463.11 286.729 463.04 287.793C463.04 291.72 460.9 294.096 456.62 294.923L462.14 303.983H465.68V307.283H458.41L451.57 295.533H448.73V292.133H452.61C453.311 292.201 454.018 292.127 454.69 291.916C455.362 291.705 455.984 291.36 456.52 290.903C456.915 290.49 457.223 290.002 457.425 289.468C457.628 288.933 457.721 288.364 457.7 287.793C457.724 287.256 457.635 286.719 457.436 286.22C457.238 285.72 456.936 285.267 456.55 284.893C455.594 284.091 454.364 283.693 453.12 283.783H447V303.983H450.3V307.283H438.4V303.983Z" fill="white"/>
<path d="M465.68 361.573H355.75V362.123H465.68V361.573Z" fill="white"/>
<path d="M109.93 361.573H0V362.123H109.93V361.573Z" fill="white"/>
<defs>
<clipPath id="clip0">
<rect width="231.399" height="240" fill="white" transform="translate(117.141)"/>
</clipPath>
</defs>
</svg>
