<svg xmlns="http://www.w3.org/2000/svg" viewBox="0 0 224.1 232.43"><defs><style>.cls-1{fill:#c19558;}.cls-2{fill:#103938;}</style></defs><g id="Layer_2" data-name="Layer 2"><g id="Layer_1-2" data-name="Layer 1"><path class="cls-1" d="M182.48,2.09l-3-2.09H44.64l-3,2.09L4.24,101,0,112.22l1.74,4.11,11,4.77c.13.07,14,6.3,30.94,19.75a195,195,0,0,1,32.54,32.74l5.46,7.34a183.79,183.79,0,0,1,16.07,27.44l11.41,24.06H115l11.4-24.06a184.38,184.38,0,0,1,16.09-27.45l5.46-7.34a194.85,194.85,0,0,1,32.53-32.73c16.94-13.42,30.77-19.67,30.88-19.72l11-4.79,1.74-4.11Z"/><path class="cls-2" d="M174.89,9.84H49.2L13.45,104.46l-2,5.36,5.26,2.29c.14.06,14.83,6.58,33.07,21A204.93,204.93,0,0,1,85,168.9l1.86,2.46a194.69,194.69,0,0,1,19.76,32.79l5.44,11.49,5.44-11.49a195.11,195.11,0,0,1,19.73-32.75l1.89-2.5a204.93,204.93,0,0,1,35.24-35.76c18.22-14.44,32.93-21,33.07-21l5.26-2.29Zm2.37,78.53c1.05,1.25,2,2.57,3,3.86s1.94,2.62,2.84,4q2.77,4,5.2,8.24c.81,1.4,1.58,2.82,2.33,4.25.33.63.66,1.26,1,1.9-3.32,2-7.19,4.4-11.45,7.34a128.87,128.87,0,0,0-20.7-33.62L152,75.13c6.1-.88,10.78-3.31,13.94-7.29A18.55,18.55,0,0,0,168,64.56c20,8.52,25.57,19.7,25.88,20.35l7.66,20.28c-1.35.66-3.26,1.63-5.6,2.92-.42-.63-.86-1.25-1.3-1.88q-1.46-2.06-3-4-3.06-4-6.43-7.67c-1.1-1.24-2.27-2.43-3.41-3.63s-2.33-2.35-3.56-3.47c-2.4-2.28-5-4.39-7.53-6.43l0,0c2.28,2.38,4.51,4.78,6.55,7.34M158,114.66q1.33,3,2.35,6.11A48.87,48.87,0,0,1,161.9,127a34.19,34.19,0,0,1,.47,4.68c-3.48,3-7.12,6.31-10.84,10a130.21,130.21,0,0,0-5.17-37l8.06-.53,4-12.52a125.41,125.41,0,0,1,17.16,29.53c-2.11,1.55-4.29,3.2-6.54,5l-2.47,2c-.23-.76-.49-1.51-.77-2.24a50.13,50.13,0,0,0-2.95-6.23,67.41,67.41,0,0,0-3.61-5.73,62.32,62.32,0,0,0-4.14-5.27l-.11.09a60.45,60.45,0,0,1,3,5.9m-21,29.25a39.09,39.09,0,0,0-.76-3.85,24.76,24.76,0,0,0-1.19-3.72l-.24.09a24.12,24.12,0,0,1,.48,3.78c.08,1.27.07,2.54,0,3.8a55.3,55.3,0,0,1-.83,7.51l-.35,1.85c-.13.61-.29,1.22-.43,1.83-.26,1.23-.63,2.43-1,3.63s-.76,2.39-1.14,3.57l-1.3,3.51.09,0a203.09,203.09,0,0,0-18.32,29.44,203.11,203.11,0,0,0-18.33-29.44l.1,0-1.3-3.51c-.38-1.18-.8-2.37-1.14-3.57s-.7-2.4-1-3.63c-.14-.61-.29-1.22-.42-1.83l-.35-1.85a55.3,55.3,0,0,1-.83-7.51c0-1.26,0-2.53,0-3.8a23,23,0,0,1,.48-3.78l-.24-.09a24.8,24.8,0,0,0-1.2,3.72c-.32,1.27-.55,2.56-.76,3.85a57.27,57.27,0,0,0-.58,7.86v2c0,.66.06,1.32.09,2,0,.44,0,.87.07,1.31-2.84-3.4-5.69-6.61-8.51-9.61a124.14,124.14,0,0,1,3.56-36.67l.51,17.3.08,2.49,2.48.15,6.19.39,3.34,16.59.43,2.16h14.74l2.52,31.38,2.51-31.38H129.3l.44-2.16,3.34-16.59,6.18-.39,2.49-.15.07-2.49.52-17.3a124.17,124.17,0,0,1,3.56,36.67c-2.82,3-5.67,6.21-8.51,9.61,0-.44.06-.87.07-1.31,0-.66.07-1.32.08-2v-2a57.28,57.28,0,0,0-.59-7.86M69,108.67a62.32,62.32,0,0,0-4.14,5.27,67.51,67.51,0,0,0-3.62,5.73,51.55,51.55,0,0,0-2.94,6.23c-.29.73-.54,1.48-.78,2.24-.83-.68-1.66-1.35-2.47-2-2.24-1.77-4.42-3.42-6.54-5A125.9,125.9,0,0,1,65.65,91.65l4,12.52,8.06.53a130.21,130.21,0,0,0-5.17,37c-3.73-3.68-7.37-7-10.84-10A32.69,32.69,0,0,1,62.2,127a48.87,48.87,0,0,1,1.55-6.23,64,64,0,0,1,2.35-6.11,58.3,58.3,0,0,1,3-5.9ZM53.35,81c-2.58,2-5.13,4.15-7.53,6.43-1.23,1.12-2.38,2.31-3.56,3.47s-2.32,2.39-3.42,3.63q-3.36,3.7-6.42,7.67-1.53,2-3,4c-.44.63-.87,1.25-1.29,1.88-2.35-1.29-4.25-2.26-5.6-2.92l7.66-20.27c.39-.82,6-11.9,25.88-20.36a19,19,0,0,0,2.07,3.29c3.16,4,7.84,6.4,13.94,7.28l-7.45,9.19a128.87,128.87,0,0,0-20.7,33.62c-4.26-2.94-8.13-5.37-11.45-7.34.31-.64.64-1.27,1-1.9.76-1.43,1.53-2.85,2.34-4.25q2.43-4.22,5.2-8.24c.9-1.36,1.88-2.65,2.84-4s2-2.61,3-3.86c2-2.56,4.27-5,6.55-7.34Zm116.4-32.82-.49-2.11H158.89c.72-.52,1.46-1,2.2-1.51a51.35,51.35,0,0,1,4.64-2.74,30.13,30.13,0,0,1,5-2.06l0-.12a30.19,30.19,0,0,0-5.49.81c-1.82.43-3.6,1-5.37,1.6s-3.5,1.32-5.23,2.06c-1.41.62-2.78,1.25-4.18,2H123.58c12-17.44,37.71-25,45.44-27l19.39,51.32a73.81,73.81,0,0,0-18.63-11,29,29,0,0,0,0-11.2M156.69,58a31.8,31.8,0,0,0-4.65.28,25.32,25.32,0,0,0-4.72,1.14c-.66.26-1.32.56-2,.89a27,27,0,0,0-4-6.17l-1.33.89a23.69,23.69,0,0,1,2.49,7.52,18.53,18.53,0,0,1,.16,3.78,14.74,14.74,0,0,1-.23,1.8.5.5,0,0,1,0,.12L123,75l-2,.7.21,2.11,1.44,14.65a30.49,30.49,0,0,0-10.56-1.55,30.49,30.49,0,0,0-10.56,1.55l1.44-14.65.21-2.11-2-.7-19.5-6.76,0-.12a14.76,14.76,0,0,1-.22-1.8,17.85,17.85,0,0,1,.16-3.78A23.92,23.92,0,0,1,84,55l-1.32-.89a27.37,27.37,0,0,0-4,6.17,21.46,21.46,0,0,0-2-.89,25.51,25.51,0,0,0-4.72-1.14A31.93,31.93,0,0,0,67.4,58a33.59,33.59,0,0,0-4.58.33l.1,1.65a34.06,34.06,0,0,1,4.24.6,30.06,30.06,0,0,1,4.06,1.15,21.21,21.21,0,0,1,3.61,1.76,12.86,12.86,0,0,1,2.26,1.89c0,.22-.09.45-.13.67a20.28,20.28,0,0,0-.25,2.36c0,.34,0,.7,0,1l-.49.6c-6.38-.22-11-2.08-13.78-5.55-3.35-4.19-3.37-9.91-3.08-12.95h44.73l8,9.2,8-9.2h44.73c.3,3,.28,8.76-3.07,12.95-2.77,3.47-7.4,5.33-13.78,5.55l-.49-.6c0-.35,0-.71,0-1a18.31,18.31,0,0,0-.24-2.36c0-.22-.09-.45-.13-.67a12.51,12.51,0,0,1,2.26-1.89,20.85,20.85,0,0,1,3.61-1.76,29.65,29.65,0,0,1,4.06-1.15,34.06,34.06,0,0,1,4.24-.6l.1-1.65a33.74,33.74,0,0,0-4.59-.33m-14.61,11.6h0s0,.06,0,0h0ZM127.82,130l-2.92,14.49H99.2L96.28,130l15.77-8ZM82,69.59s0,0,0,0h0l0,0ZM75.59,20.41c-1.47-.66-2.91-1.26-4.3-1.82h81.52c-1.4.56-2.83,1.16-4.3,1.82-15.29,6.85-26.35,16.12-32,26.82l-2.14,2.48-2.3-25.9-2.3,25.9-2.15-2.48c-5.66-10.7-16.72-20-32-26.82m24.93,25.65H73.65c-1.4-.71-2.77-1.34-4.18-2C67.74,43.36,66,42.66,64.24,42s-3.55-1.17-5.37-1.6a30.32,30.32,0,0,0-5.49-.81l0,.12a30.13,30.13,0,0,1,5,2.06A51.35,51.35,0,0,1,63,44.55c.74.48,1.47,1,2.2,1.51H54.84l-.49,2.11a29,29,0,0,0,0,11.2,74.08,74.08,0,0,0-18.64,11l19.4-51.32c7.73,2,33.46,9.56,45.44,27M73.74,99l-4-12.32L80.44,73.49l.18.06,3.65,5.82h13.1L96,93.7l-.15,1.53,1.24.9,12.31,9v12.16l-16.62,8.45-5.08-.32L87,103.32l4.69-5.15-1.06-1.48-6.74,2.94Zm66.46.67-6.73-2.94-1.06,1.48,4.68,5.15-.65,22.09-5.09.32-16.61-8.45V105.12l12.31-9,1.24-.9-.15-1.53-1.41-14.33h13.1l3.65-5.82.18-.06,10.66,13.15-4,12.32Z"/></g></g></svg>