<svg width="80" height="84" viewBox="0 0 80 84" fill="none" xmlns="http://www.w3.org/2000/svg">
<path d="M11.4918 12.3607C9.22183 12.4762 7.45767 14.3626 7.45767 16.6224V50.2793C7.45767 59.9308 12.6069 68.849 20.9653 73.6747L34.6225 81.5592C37.9502 83.4803 42.0498 83.4803 45.3775 81.5592L59.0347 73.6747C67.3932 68.8492 72.5424 59.9307 72.5424 50.2793V16.6224C72.5424 14.3627 70.7782 12.4764 68.5083 12.3607L68.5082 12.3607C54.1548 11.6297 46.4386 5.79825 43.0456 2.28914C41.3837 0.570283 38.6165 0.570284 36.9545 2.28915C33.5615 5.79824 25.8452 11.6297 11.4918 12.3607ZM11.4918 12.3607L11.5427 13.3594M11.4918 12.3607L11.5427 13.3594M11.5427 13.3594C9.81111 13.4475 8.45767 14.8885 8.45767 16.6224V50.2793C8.45767 59.5735 13.4163 68.1616 21.4653 72.8086L35.1225 80.6932C38.1408 82.4357 41.8592 82.4357 44.8775 80.6932L58.5347 72.8086C66.5838 68.1618 71.5424 59.5735 71.5424 50.2793V16.6224C71.5424 14.8886 70.1889 13.4477 68.4574 13.3594C53.8224 12.6141 45.875 6.65395 42.3267 2.98426C41.0578 1.67191 38.9424 1.67191 37.6735 2.98426C34.1252 6.65395 26.1777 12.6141 11.5427 13.3594Z" fill="white" stroke="#103938" stroke-width="2"/>
<path d="M16.503 20.4522L16.5031 20.4522C27.5403 19.0634 34.9962 14.9524 39.6156 11.3087L38.9975 10.5252L39.6156 11.3087C39.8413 11.1307 40.1587 11.1307 40.3845 11.3087L41.0025 10.5252L40.3845 11.3087C45.004 14.9526 52.4597 19.0634 63.4969 20.4522C63.8034 20.4907 64.0388 20.7549 64.0388 21.0718V50.2794C64.0388 56.8705 60.4912 63.0149 54.7832 66.3103L41.1263 74.1947C40.7844 74.392 40.3945 74.4964 40 74.4964C39.6056 74.4964 39.2158 74.392 38.874 74.1947L25.2169 66.3102C19.5088 63.0148 15.9613 56.8704 15.9613 50.2792V21.0718C15.9613 20.7546 16.1968 20.4907 16.503 20.4522Z" fill="white" stroke="#103938" stroke-width="2"/>
<path d="M35.1219 57.4701C33.8734 57.4701 32.6252 56.994 31.6727 56.0415L21.9166 46.2854C20.0116 44.3804 20.0116 41.2916 21.9166 39.3866C23.8216 37.4816 26.9102 37.4816 28.8152 39.3866L35.122 45.6935L51.185 29.6305C53.09 27.7255 56.1786 27.7255 58.0836 29.6305C59.9886 31.5355 59.9886 34.6243 58.0836 36.5293L38.5713 56.0413C37.6188 56.9938 36.3705 57.4701 35.1219 57.4701Z" fill="#C19558"/>
</svg>
